<?xml version="1.0" encoding="UTF-8" standalone="no"?>
<svg
   version="1.1"
   viewBox="30 340 2540 1880"
   xmlns="http://www.w3.org/2000/svg">
  <defs>
    <clipPath
       clipPathUnits="userSpaceOnUse"
       id="clipPath2">
      <path
         d="M 0,2000 H 2000 V 0 H 0 Z"
         transform="translate(-1605.6615,-928.32285)" />
    </clipPath>
    <clipPath
       clipPathUnits="userSpaceOnUse"
       id="clipPath4">
      <path
         d="M 0,2000 H 2000 V 0 H 0 Z"
         transform="translate(-480.21111,-643.46774)" />
    </clipPath>
    <clipPath
       clipPathUnits="userSpaceOnUse"
       id="clipPath6">
      <path
         d="M 0,2000 H 2000 V 0 H 0 Z"
         transform="translate(-113.2756,-648.23714)" />
    </clipPath>
    <clipPath
       clipPathUnits="userSpaceOnUse"
       id="clipPath8">
      <path
         d="M 0,2000 H 2000 V 0 H 0 Z"
         transform="translate(-848.91745,-640.28174)" />
    </clipPath>
    <clipPath
       clipPathUnits="userSpaceOnUse"
       id="clipPath10">
      <path
         d="M 0,2000 H 2000 V 0 H 0 Z"
         transform="translate(-1134.6597,-1567.5846)" />
    </clipPath>
    <clipPath
       clipPathUnits="userSpaceOnUse"
       id="clipPath12">
      <path
         d="M 0,2000 H 2000 V 0 H 0 Z"
         transform="translate(-1523.3307,-1567.6938)" />
    </clipPath>
    <clipPath
       clipPathUnits="userSpaceOnUse"
       id="clipPath14">
      <path
         d="M 0,2000 H 2000 V 0 H 0 Z"
         transform="translate(-1791.7308,-1547.8157)" />
    </clipPath>
  </defs>
  <g>
    <path
       d="m 0,0 c -0.766,-21.938 -15.147,-40.493 -40.192,-40.553 l -230.992,-0.554 37.496,37.291 46.046,46.062 149.635,-0.753 C -13.791,41.371 0.792,22.694 0,0 m -225.926,99.005 127.829,129.938 c 29.822,0.035 57.286,0.126 88.841,-4.12 l -93.999,-94.825 -84.391,-85.511 -90.982,0.296 z m -128.012,-49.996 -183.02,-184.175 -23.982,-24.062 -0.254,97.961 43.658,45.082 246.781,246.891 97.791,-0.183 z m -4.055,-80.07 -0.435,74.932 75.15,-0.312 z m -100.043,262.016 91.299,-0.359 -148.71,-148.849 -44.964,-45.307 -0.798,91.158 z m -397.375,-212.724 26.805,28.083 c 14.036,13.918 27.965,26.749 44.961,38.179 -15.304,-29.698 -39.861,-53.426 -71.766,-66.262 m -47.009,58.997 -77.081,-78.537 -93.69,0.083 97.741,99.767 149.476,153.133 73.094,73.8 c 8.294,-28.578 11.811,-56.922 10.6,-86.768 z m -256.365,-78.239 -89.75,0.048 162.315,165.999 89.518,-0.19 z m 178.889,336.967 c 16.881,-1.754 32.061,-3.746 46.56,-15.819 l -149.381,-151.422 -133.892,-0.091 -0.056,167.395 z m -10.432,-166.981 86.019,88.001 c 1.765,-50.236 -34.397,-94.62 -86.019,-88.001 m 174.498,269.824 c 15.244,-15.577 29.363,-31.398 38.986,-52.1 L -902.755,260.012 c -2.736,25.832 -10.663,45.092 -29.337,60.827 z m 719.189,-206.875 -72.141,0.46 319.105,319.189 -50.023,49.996 -312.324,-311.336 -58.324,-57.865 -89.897,0.107 230.524,230.515 -49,49.338 -68.343,-69.113 -211.079,-210.985 -79.826,0.357 284.556,284.143 34.993,34.784 -49.667,50.137 L -400.042,469.819 -573.171,296.937 -776.187,93.914 c 21.835,46.638 37.008,92.395 36.607,143.462 l 112.403,113.593 111.378,111.944 -50.375,50.29 -185.036,-184.258 c -6.216,21.189 -13.703,38.274 -22.804,56.833 l 167.675,167.68 -47.902,48.156 -160.256,-160.442 c -31.14,32.275 -68.217,54.298 -111.1,64.181 -29.32,6.923 -57.281,9.168 -87.84,8.893 l -383.105,-0.037 0.01,-516.723 142.598,-0.627 -116.068,-118.836 -73.813,-74.565 50.465,-48.278 182.841,188.798 51.969,52.919 79.786,-0.277 -106.531,-109.354 -77.734,-79.423 -90.978,-92.008 49.629,-47.779 173.112,172.966 133.61,135.256 20.803,20.69 c 37.385,-2.431 71.498,4.364 108.962,14.667 l -183.676,-185.867 -27.168,-28.338 56.468,-54.306 332.05,335.955 128,130.15 0.013,-80.834 -101.15,-101.806 -198.906,-202.901 -118.193,-120.066 49.323,-46.755 87.195,87.737 261.619,266.421 20.154,20.696 0.042,-90.869 -148.404,-151.511 51.993,-49.157 96.906,97.188 0.452,-80.116 72.667,73.991 124.003,125.191 81.513,0.016 c 0.977,0 3.064,-0.461 3.651,-0.56 0.585,-0.099 -0.949,-2.053 -1.438,-2.552 l -98.322,-100.25 -110.398,-112.146 -71.509,-73.191 -0.756,89.394 -55.319,-57.165 46.245,-43.237 15.413,14.653 186.303,-0.021 0.014,99.707 307.356,-0.047 c 25.342,1.24 48.275,3.556 72.429,9.859 94.188,24.577 151.718,99.042 160.486,195.026 C 179.36,65.575 150.339,157.884 66.61,201.7 44.481,213.281 21.316,220.159 -4.162,224.715 l 190.23,190.695 49.474,49.744 -49.559,48.65 z"
       style="fill:currentColor;fill-opacity:1;fill-rule:nonzero;stroke:none"
       transform="matrix(1.3333333,0,0,-1.3333333,2140.882,1428.9029)"
       clip-path="url(#clipPath2)" />
    <path
       d="m 0,0 c -1.877,-40.919 19.671,-77.404 57.979,-93.896 38.821,-16.712 82.57,-8.3 113.223,19.632 L 26.949,63.096 C 10.766,45.971 1.087,23.708 0,0"
       style="fill:currentColor;fill-opacity:1;fill-rule:nonzero;stroke:none"
       transform="matrix(1.3333333,0,0,-1.3333333,640.28147,1808.7097)"
       clip-path="url(#clipPath4)" />
    <path
       d="m 0,0 c -2.792,-43.343 22.165,-81.811 64.391,-95.514 35.906,-11.653 73.205,-1.416 100.305,23.036 L 26.199,60.005 C 10.674,43.08 1.476,22.913 0,0"
       style="fill:currentColor;fill-opacity:1;fill-rule:nonzero;stroke:none"
       transform="matrix(1.3333333,0,0,-1.3333333,151.03413,1802.3505)"
       clip-path="url(#clipPath6)" />
    <path
       d="m 0,0 c -3.177,-52.108 35.881,-95.323 88.768,-98.145 29.051,-1.549 55.06,7.867 75.073,26.742 L 25.87,59.941 C 10.491,42.715 1.381,22.647 0,0"
       style="fill:currentColor;fill-opacity:1;fill-rule:nonzero;stroke:none"
       transform="matrix(1.3333333,0,0,-1.3333333,1131.8899,1812.9577)"
       clip-path="url(#clipPath8)" />
    <path
       d="m 0,0 -97.617,-19.871 76.38,-79.367 z"
       style="fill:currentColor;fill-opacity:1;fill-rule:nonzero;stroke:none"
       transform="matrix(1.3333333,0,0,-1.3333333,1512.8796,576.55387)"
       clip-path="url(#clipPath10)" />
    <path
       d="m 0,0 -98.002,-19.539 76.385,-79.396 z"
       style="fill:currentColor;fill-opacity:1;fill-rule:nonzero;stroke:none"
       transform="matrix(1.3333333,0,0,-1.3333333,2031.1076,576.40827)"
       clip-path="url(#clipPath12)" />
    <path
       d="M 0,0 74.248,-77.679 95.206,19.288 Z"
       style="fill:currentColor;fill-opacity:1;fill-rule:nonzero;stroke:none"
       transform="matrix(1.3333333,0,0,-1.3333333,2388.9743,602.9124)"
       clip-path="url(#clipPath14)" />
  </g>
</svg>
